:version 1.10
:name ASF
:units
  mass 1
  length 1
  angle deg
:documentation
  ASF file generated by Kaydara
:root
  axis xyz
  order  tx ty tz rx ry rz
  position 0 0 0
  orientation 0 0 0
:bonedata
  begin
    id 1
    name RightUpLegDummy
    direction -0.718183 -0.695806 0.00816078
    length 4.904
    axis 0 0 0 xyz
  end
  begin
    id 2
    name RightUpLeg
    direction 3.53373e-006 -0.995788 0.0916898
    length 17.4976
    axis -3.49089 -0.000906625 0.000286804 xyz
    dof rx ry rz
  end
  begin
    id 3
    name RightLeg
    direction 0.00371092 -0.995096 -0.0988419
    length 16.5821
    axis 3.68512 0.0193738 -0.131023 xyz
    dof rx ry rz
  end
  begin
    id 4
    name RightFoot
    direction 0.00079151 -0.46099 0.887405
    length 3.77069
    axis 4.81691e-005 -0.120479 -0.188788 xyz
    dof rx ry rz
  end
  begin
    id 5
    name RightToes
    direction 0 0 0
    length 0
    axis 0 0 0 xyz
    dof rx ry rz
  end
  begin
    id 6
    name SpineDummy
    direction 8.3039e-015 1 4.57515e-016
    length 4.6813
    axis 0 0 0 xyz
  end
  begin
    id 7
    name Spine
    direction -3.15643e-008 0.999988 0.00495137
    length 10.1015
    axis -0.001389 0.000121418 2.40972e-006 xyz
    dof rx ry rz
  end
  begin
    id 8
    name Spine1
    direction 0 0 0
    length 0
    axis -0.001389 0.000121451 1.30017e-006 xyz
    dof rx ry rz
  end
  begin
    id 9
    name HEadDummy
    direction -1.99912e-008 0.999999 0.00127422
    length 3.43865
    axis -0.001389 0.000121451 1.30017e-006 xyz
  end
  begin
    id 10
    name HEad
    direction 0 0 0
    length 0
    axis 0 0 0 xyz
    dof rx ry rz
  end
  begin
    id 11
    name LeftShoulder1Dummy
    direction 0.998891 -0.0402509 -0.0244456
    length 3.5433
    axis -0.001389 0.000121451 1.30017e-006 xyz
  end
  begin
    id 12
    name LeftShoulder1
    direction 0.99951 -0.000327763 0.0313091
    length 4.05031
    axis -0.001389 0.000121451 1.30017e-006 xyz
    dof rx ry rz
  end
  begin
    id 13
    name LeftArm
    direction 0.998561 -0.00100056 -0.0536182
    length 10.3537
    axis -23.1894 0.134784 0.967509 xyz
    dof rx ry rz
  end
  begin
    id 14
    name LeftForeArm
    direction 0.998903 0.00866432 0.046012
    length 8.70632
    axis -9.91835 -0.06569 -0.177794 xyz
    dof rx ry rz
  end
  begin
    id 15
    name LeftHand
    direction 0 0 0
    length 0
    axis 0 0 0 xyz
    dof rx ry rz
  end
  begin
    id 16
    name RightShoulderDummy
    direction -0.998891 -0.0402509 -0.0244414
    length 3.5433
    axis -0.001389 0.000121451 1.30017e-006 xyz
  end
  begin
    id 17
    name RightShoulder
    direction -0.99951 -0.000327807 0.0313133
    length 4.05031
    axis 0.215806 0.000203643 -0.0068026 xyz
    dof rx ry rz
  end
  begin
    id 18
    name RightArm
    direction -0.998573 -0.000999564 -0.053403
    length 10.3947
    axis -23.2009 -0.134239 -0.964101 xyz
    dof rx ry rz
  end
  begin
    id 19
    name RightForeArm
    direction -0.998898 0.00868028 0.0461306
    length 8.68355
    axis -9.92322 0.0658061 0.178868 xyz
    dof rx ry rz
  end
  begin
    id 20
    name RightHand
    direction 0 0 0
    length 0
    axis 0 0 0 xyz
    dof rx ry rz
  end
  begin
    id 21
    name LeftUpLegDummy
    direction 0.718183 -0.695806 0.00816078
    length 4.904
    axis 0 0 0 xyz
  end
  begin
    id 22
    name LeftUpLeg
    direction -6.81752e-006 -0.995793 0.0916337
    length 17.4976
    axis -3.48766 0.00143442 -0.000524262 xyz
    dof rx ry rz
  end
  begin
    id 23
    name LeftLeg
    direction -0.00601358 -0.995091 -0.0987824
    length 16.5821
    axis 3.68178 -0.00654042 -0.000285133 xyz
    dof rx ry rz
  end
  begin
    id 24
    name LeftFoot
    direction -0.00417578 -0.460984 0.887399
    length 3.77069
    axis 1.87233e-006 4.66016e-005 -8.6538e-006 xyz
    dof rx ry rz
  end
  begin
    id 25
    name LeftToes
    direction 0 0 0
    length 0
    axis 0 0 0 xyz
    dof rx ry rz
  end
:hierarchy
  begin
    root RightUpLegDummy SpineDummy LeftUpLegDummy
    RightUpLegDummy RightUpLeg
    RightUpLeg RightLeg
    RightLeg RightFoot
    RightFoot RightToes
    SpineDummy Spine
    Spine Spine1
    Spine1 HEadDummy LeftShoulder1Dummy RightShoulderDummy
    HEadDummy HEad
    LeftShoulder1Dummy LeftShoulder1
    LeftShoulder1 LeftArm
    LeftArm LeftForeArm
    LeftForeArm LeftHand
    RightShoulderDummy RightShoulder
    RightShoulder RightArm
    RightArm RightForeArm
    RightForeArm RightHand
    LeftUpLegDummy LeftUpLeg
    LeftUpLeg LeftLeg
    LeftLeg LeftFoot
    LeftFoot LeftToes
  end

:SAMPLES-PER-SECOND 30
:FULLY-SPECIFIED
:DEGREES
168
root  13.5443 40.5534 9.93005 158.583 82.588 162.017
RightUpLeg  1.77932 -13.8167 -13.9404
RightLeg  8.99405 -12.651 1.70411
RightFoot  -1.78354 -0.355977 4.06207
RightToes  0.000481921 0.542163 -0.142578
Spine  -1.12484 -1.38818 -3.09576
Spine1  14.0874 -2.61437 4.1392
HEad  11.9579 -3.14506 1.43974
LeftShoulder1  8.98693 -12.8804 -47.8775
LeftArm  -11.4953 9.23672 -28.1131
LeftForeArm  175.672 -52.6169 -167.263
LeftHand  -0.25398 0.0180481 5.50724
RightShoulder  4.24219 7.17881 33.763
RightArm  -3.05916 -23.2894 37.5915
RightForeArm  151.065 48.3497 167.319
RightHand  -1.19254 2.45385 -17.7836
LeftUpLeg  0.780475 6.49852 6.91968
LeftLeg  1.22855 9.22767 -3.18215
LeftFoot  4.51569 0.672666 -5.04744
LeftToes  1.06245e-005 4.65869e-005 -8.65517e-006
169
root  13.542 40.5545 9.9407 158.537 82.7048 162.027
RightUpLeg  1.81628 -13.7463 -13.8695
RightLeg  8.95989 -12.6256 1.6925
RightFoot  -1.76711 -0.357801 4.08602
RightToes  0.000481921 0.542163 -0.142578
Spine  -1.21331 -1.32889 -3.08716
Spine1  14.1451 -2.44924 3.81879
HEad  12.1819 -3.79235 1.94834
LeftShoulder1  8.93079 -12.8815 -47.5707
LeftArm  -11.3253 9.12967 -28.4654
LeftForeArm  175.701 -52.7285 -167.216
LeftHand  -0.25398 0.0180481 5.50724
RightShoulder  4.20098 7.15438 33.4689
RightArm  -4.57119 -20.8919 37.1387
RightForeArm  150.343 49.7082 166.701
RightHand  -1.2647 2.71156 -18.2555
LeftUpLeg  0.856487 6.53278 6.98929
LeftLeg  1.22802 9.28063 -3.16925
LeftFoot  4.51784 0.672628 -5.0532
LeftToes  1.06245e-005 4.65869e-005 -8.65517e-006
170
root  13.5264 40.5514 9.94414 157.908 82.9231 161.519
RightUpLeg  1.83328 -13.743 -13.8539
RightLeg  9.00439 -12.3935 1.67498
RightFoot  -1.76187 -0.360704 4.12528
RightToes  0.000481921 0.542163 -0.142578
Spine  -1.19293 -1.19759 -3.13759
Spine1  14.1611 -2.23502 3.59288
HEad  12.3213 -4.52801 2.34095
LeftShoulder1  8.91261 -12.908 -47.3943
LeftArm  -11.1683 8.95468 -28.6481
LeftForeArm  175.56 -52.8458 -167.153
LeftHand  -0.25398 0.0180481 5.50724
RightShoulder  4.09622 7.04117 32.9006
RightArm  -6.44004 -17.5248 36.3649
RightForeArm  148.169 51.9764 165.521
RightHand  -1.38526 3.05307 -19.175
LeftUpLeg  0.966113 6.5924 7.04924
LeftLeg  1.32423 9.42032 -3.17496
LeftFoot  4.4718 0.671352 -5.04197
LeftToes  1.06245e-005 4.65869e-005 -8.65517e-006
171
root  13.5043 40.5467 9.93991 156.946 83.2305 160.695
RightUpLeg  1.82089 -13.7763 -13.8587
RightLeg  9.07418 -12.0278 1.68081
RightFoot  -1.74046 -0.358828 4.08881
RightToes  0.000481921 0.542163 -0.142578
Spine  -1.20962 -1.00243 -3.0866
Spine1  14.2017 -1.92992 3.28756
HEad  12.4112 -5.2236 2.64062
LeftShoulder1  8.96089 -13.0348 -47.2843
LeftArm  -11.0627 8.75514 -28.7098
LeftForeArm  175.359 -52.9858 -167.075
LeftHand  -0.25398 0.0180481 5.50724
RightShoulder  3.98223 6.91196 32.2886
RightArm  -8.40557 -13.3565 35.024
RightForeArm  143.718 55.14 163.556
RightHand  -1.52676 3.35916 -20.3633
LeftUpLeg  1.09157 6.67442 7.11753
LeftLeg  1.45767 9.63294 -3.19555
LeftFoot  4.39018 0.671434 -5.05376
LeftToes  1.06245e-005 4.65869e-005 -8.65517e-006
172
root  13.4815 40.5428 9.93064 156.125 83.5777 159.984
RightUpLeg  1.78482 -13.7918 -13.8248
RightLeg  9.11004 -11.6656 1.7063
RightFoot  -1.6933 -0.354202 4.00808
RightToes  0.000481921 0.542163 -0.142578
Spine  -1.36781 -0.811193 -2.86258
Spine1  14.3526 -1.59469 2.85013
HEad  12.4741 -5.89176 2.94416
LeftShoulder1  9.03379 -13.2023 -47.1897
LeftArm  -10.9794 8.53376 -28.7463
LeftForeArm  175.389 -53.1672 -166.995
LeftHand  -0.25398 0.0180481 5.50724
RightShoulder  3.90667 6.8659 31.7281
RightArm  -10.1318 -8.56429 33.144
RightForeArm  136.677 59.0899 160.499
RightHand  -1.7019 3.79597 -21.5922
LeftUpLeg  1.17921 6.77118 7.21447
LeftLeg  1.6162 9.85922 -3.2061
LeftFoot  4.29003 0.672293 -5.07896
LeftToes  1.06245e-005 4.65869e-005 -8.65517e-006
173
root  13.4588 40.5408 9.91777 155.587 83.9134 159.538
RightUpLeg  1.76231 -13.7548 -13.7498
RightLeg  9.08518 -11.3839 1.72878
RightFoot  -1.62412 -0.352775 3.97536
RightToes  0.000481921 0.542163 -0.142578
Spine  -1.61652 -0.668428 -2.55288
Spine1  14.6165 -1.30303 2.3673
HEad  12.5188 -6.62025 3.27911
LeftShoulder1  9.07381 -13.305 -47.1079
LeftArm  -10.8654 8.28914 -28.7354
LeftForeArm  175.625 -53.3429 -166.932
LeftHand  -0.25398 0.0180481 5.50724
RightShoulder  3.85742 6.90055 31.1248
RightArm  -11.4836 -3.31276 31.0921
RightForeArm  127.257 63.7108 155.768
RightHand  -1.85975 4.27507 -22.4133
LeftUpLeg  1.23258 6.86465 7.32489
LeftLeg  1.78741 10.0624 -3.19497
LeftFoot  4.19042 0.671934 -5.08596
LeftToes  1.06245e-005 4.65869e-005 -8.65517e-006
174
root  13.4353 40.5406 9.90199 155.106 84.2174 159.154
RightUpLeg  1.77762 -13.6572 -13.6697
RightLeg  9.00549 -11.1898 1.74104
RightFoot  -1.52953 -0.354095 3.98352
RightToes  0.000481921 0.542163 -0.142578
Spine  -1.81629 -0.525015 -2.24848
Spine1  14.8435 -1.01 1.88735
HEad  12.6277 -7.43334 3.61271
LeftShoulder1  9.09386 -13.3717 -47.0239
LeftArm  -10.712 8.09914 -28.6095
LeftForeArm  175.683 -53.4487 -166.888
LeftHand  -0.25398 0.0180481 5.50724
RightShoulder  3.77271 6.87921 30.3753
RightArm  -12.5738 2.07173 29.3438
RightForeArm  115.48 68.827 148.067
RightHand  -1.94683 4.61435 -22.6654
LeftUpLeg  1.30698 6.94462 7.423
LeftLeg  1.91353 10.2489 -3.18426
LeftFoot  4.10814 0.670786 -5.08092
LeftToes  1.06245e-005 4.65869e-005 -8.65517e-006
175
root  13.4106 40.5412 9.88639 154.54 84.4832 158.679
RightUpLeg  1.79836 -13.5265 -13.6038
RightLeg  8.90726 -11.0608 1.75139
RightFoot  -1.41582 -0.353917 3.96421
RightToes  0.000481921 0.542163 -0.142578
Spine  -1.88216 -0.317765 -1.98157
Spine1  14.8716 -0.65759 1.45613
HEad  12.8469 -8.29841 3.90268
LeftShoulder1  9.1455 -13.4818 -46.9837
LeftArm  -10.5644 8.03275 -28.3815
LeftForeArm  175.438 -53.4925 -166.849
LeftHand  -0.25398 0.0180481 5.50724
RightShoulder  3.62376 6.72448 29.4526
RightArm  -13.493 7.23491 28.0496
RightForeArm  98.7079 73.9284 134.311
RightHand  -2.08482 5.17297 -22.9827
LeftUpLeg  1.40422 7.01398 7.50217
LeftLeg  1.96278 10.4213 -3.19719
LeftFoot  4.05144 0.670579 -5.0903
LeftToes  1.06245e-005 4.65869e-005 -8.65517e-006
176
root  13.3839 40.5415 9.87518 153.975 84.6859 158.165
RightUpLeg  1.7748 -13.4232 -13.5576
RightLeg  8.8458 -10.9607 1.75938
RightFoot  -1.31735 -0.353372 3.92584
RightToes  0.000481921 0.542163 -0.142578
Spine  -1.84306 -0.0822408 -1.76432
Spine1  14.725 -0.306547 1.13624
HEad  13.0443 -9.18042 4.12628
LeftShoulder1  9.21947 -13.5924 -47.059
LeftArm  -10.478 8.0486 -28.1624
LeftForeArm  175.272 -53.5331 -166.818
LeftHand  -0.25398 0.0180481 5.50724
RightShoulder  3.46801 6.5667 28.4399
RightArm  -14.243 12.1118 26.875
RightForeArm  70.3527 77.6423 108.808
RightHand  -2.41757 6.368 -23.9217
LeftUpLeg  1.46349 7.06805 7.55667
LeftLeg  1.97543 10.556 -3.22492
LeftFoot  4.02253 0.670854 -5.10644
LeftToes  1.06245e-005 4.65869e-005 -8.65517e-006
177
root  13.3557 40.5406 9.86918 153.518 84.7942 157.728
RightUpLeg  1.71174 -13.3948 -13.5448
RightLeg  8.8501 -10.8672 1.75694
RightFoot  -1.26437 -0.354385 3.9256
RightToes  0.000481921 0.542163 -0.142578
Spine  -1.77754 0.0989117 -1.54716
Spine1  14.5505 -0.0171627 0.82125
HEad  13.0748 -10.0209 4.31639
LeftShoulder1  9.2508 -13.6292 -47.1189
LeftArm  -10.4488 8.10255 -28.1131
LeftForeArm  175.405 -53.5992 -166.797
LeftHand  -0.25398 0.0180481 5.50724
RightShoulder  3.37444 6.55083 27.5385
RightArm  -14.9059 16.8293 25.4464
RightForeArm  31.6331 77.676 73.25
RightHand  -2.81446 7.74111 -24.9277
LeftUpLeg  1.46055 7.09191 7.57091
LeftLeg  1.99614 10.6325 -3.24282
LeftFoot  4.01854 0.670026 -5.10407
LeftToes  1.06245e-005 4.65869e-005 -8.65517e-006
178
root  13.3282 40.5379 9.8656 153.281 84.8033 157.506
RightUpLeg  1.65733 -13.4351 -13.5679
RightLeg  8.89432 -10.8002 1.74891
RightFoot  -1.24628 -0.357232 3.95677
RightToes  0.000481921 0.542163 -0.142578
Spine  -1.73075 0.224768 -1.22741
Spine1  14.4102 0.274412 0.296132
HEad  13.0022 -10.7412 4.55185
LeftShoulder1  9.2224 -13.6506 -46.9114
LeftArm  -10.3845 8.23749 -28.3078
LeftForeArm  175.518 -53.6764 -166.77
LeftHand  -0.25398 0.0180481 5.50724
RightShoulder  3.32274 6.59475 26.8575
RightArm  -15.5978 21.3819 23.892
RightForeArm  1.79724 73.6071 45.9008
RightHand  -3.05067 8.653 -25.2595
LeftUpLeg  1.42707 7.08251 7.54539
LeftLeg  2.02261 10.6495 -3.23997
LeftFoot  4.02873 0.668746 -5.09287
LeftToes  1.06245e-005 4.65869e-005 -8.65517e-006
179
root  13.3026 40.5355 9.86256 153.389 84.7389 157.63
RightUpLeg  1.63041 -13.5039 -13.6037
RightLeg  8.93977 -10.7919 1.74672
RightFoot  -1.23356 -0.358747 3.96987
RightToes  0.000481921 0.542163 -0.142578
Spine  -1.71915 0.36659 -0.815185
Spine1  14.3096 0.626783 -0.378673
HEad  12.9505 -11.3335 4.87649
LeftShoulder1  9.19455 -13.7461 -46.5008
LeftArm  -10.2051 8.42283 -28.5854
LeftForeArm  175.312 -53.7469 -166.722
LeftHand  -0.25398 0.0180481 5.50724
RightShoulder  3.23285 6.52618 26.1597
RightArm  -16.2558 25.6464 22.6989
RightForeArm  -14.9772 67.1457 30.4133
RightHand  -3.26491 9.53003 -25.4382
LeftUpLeg  1.38025 7.05319 7.50338
LeftLeg  2.04115 10.6172 -3.22005
LeftFoot  4.04428 0.668821 -5.10048
LeftToes  1.06245e-005 4.65869e-005 -8.65517e-006
180
root  13.2778 40.5338 9.86162 153.78 84.6399 158.03
RightUpLeg  1.60882 -13.57 -13.6256
RightLeg  8.98569 -10.8322 1.74188
RightFoot  -1.21973 -0.358506 3.95811
RightToes  0.000481921 0.542163 -0.142578
Spine  -1.76307 0.556953 -0.444995
Spine1  14.3399 0.981026 -0.889667
HEad  12.8671 -11.8945 5.27655
LeftShoulder1  9.21791 -13.8731 -46.2719
LeftArm  -9.97716 8.46227 -28.676
LeftForeArm  175.032 -53.805 -166.673
LeftHand  -0.25398 0.0180481 5.50724
RightShoulder  3.08717 6.38115 25.1165
RightArm  -16.7597 29.5814 22.0042
RightForeArm  -25.0404 59.5745 21.6371
RightHand  -3.74602 11.0889 -26.3777
LeftUpLeg  1.31757 7.02023 7.46729
LeftLeg  2.05615 10.5532 -3.19254
LeftFoot  4.0669 0.66998 -5.12216
LeftToes  1.06245e-005 4.65869e-005 -8.65517e-006
181
root  13.2537 40.5318 9.86467 154.243 84.5406 158.509
RightUpLeg  1.58522 -13.6262 -13.6251
RightLeg  9.04973 -10.8818 1.71631
RightFoot  -1.21766 -0.358116 3.94614
RightToes  0.000481921 0.542163 -0.142578
Spine  -1.83548 0.76622 -0.121655
Spine1  14.5418 1.29803 -1.21022
HEad  12.65 -12.5271 5.73788
LeftShoulder1  9.27079 -13.9449 -46.3482
LeftArm  -9.84238 8.26348 -28.5525
LeftForeArm  175.039 -53.863 -166.646
LeftHand  -0.25398 0.0180481 5.50724
RightShoulder  2.95333 6.332 23.8544
RightArm  -17.1962 33.238 21.34
RightForeArm  -32.448 51.7169 16.3366
RightHand  -4.32973 12.807 -27.5686
LeftUpLeg  1.25907 6.99803 7.44987
LeftLeg  2.07938 10.4729 -3.16789
LeftFoot  4.09279 0.670753 -5.13447
LeftToes  1.06245e-005 4.65869e-005 -8.65517e-006
